HIERARCHY
ROOT Hips
{
	OFFSET 0.00000 0.00000 0.00000
	CHANNELS 6 Xposition Yposition Zposition Zrotation Yrotation Xrotation 
	JOINT LHipJoint
	{
		OFFSET 0 0 0
		CHANNELS 3 Zrotation Yrotation Xrotation
		JOINT LeftUpLeg
		{
			OFFSET 1.57358 -1.76629 0.73362
			CHANNELS 3 Zrotation Yrotation Xrotation
			JOINT LeftLeg
			{
				OFFSET 2.40600 -6.61045 0.00000
				CHANNELS 3 Zrotation Yrotation Xrotation
				JOINT LeftFoot
				{
					OFFSET 2.66168 -7.31291 0.00000
					CHANNELS 3 Zrotation Yrotation Xrotation
					JOINT LeftToeBase
					{
						OFFSET 0.20870 -0.57341 2.12506
						CHANNELS 3 Zrotation Yrotation Xrotation
						End Site
						{
							OFFSET 0.00000 -0.00000 1.10557
						}
					}
				}
			}
		}
	}
	JOINT RHipJoint
	{
		OFFSET 0 0 0
		CHANNELS 3 Zrotation Yrotation Xrotation
		JOINT RightUpLeg
		{
			OFFSET -1.49299 -1.76629 0.73362
			CHANNELS 3 Zrotation Yrotation Xrotation
			JOINT RightLeg
			{
				OFFSET -2.43663 -6.69460 0.00000
				CHANNELS 3 Zrotation Yrotation Xrotation
				JOINT RightFoot
				{
					OFFSET -2.62959 -7.22474 0.00000
					CHANNELS 3 Zrotation Yrotation Xrotation
					JOINT RightToeBase
					{
						OFFSET -0.25784 -0.70841 2.21862
						CHANNELS 3 Zrotation Yrotation Xrotation
						End Site
						{
							OFFSET -0.00000 -0.00000 1.16452
						}
					}
				}
			}
		}
	}
	JOINT LowerBack
	{
		OFFSET 0 0 0
		CHANNELS 3 Zrotation Yrotation Xrotation
		JOINT Spine
		{
			OFFSET -0.00034 2.12399 -0.25450
			CHANNELS 3 Zrotation Yrotation Xrotation
			JOINT Spine1
			{
				OFFSET 0.05594 2.14379 -0.03318
				CHANNELS 3 Zrotation Yrotation Xrotation
				JOINT Neck
				{
					OFFSET 0 0 0
					CHANNELS 3 Zrotation Yrotation Xrotation
					JOINT Neck1
					{
						OFFSET -0.09835 1.62725 0.24211
						CHANNELS 3 Zrotation Yrotation Xrotation
						JOINT Head
						{
							OFFSET 0.10849 1.66041 -0.22648
							CHANNELS 3 Zrotation Yrotation Xrotation
							End Site
							{
								OFFSET 0.04385 1.68267 -0.10541
							}
						}
					}
				}
				JOINT LeftShoulder
				{
					OFFSET 0 0 0
					CHANNELS 3 Zrotation Yrotation Xrotation
					JOINT LeftArm
					{
						OFFSET 3.29108 0.79398 -0.68179
						CHANNELS 3 Zrotation Yrotation Xrotation
						JOINT LeftForeArm
						{
							OFFSET 5.15310 -0.00000 -0.00000
							CHANNELS 3 Zrotation Yrotation Xrotation
							JOINT LeftHand
							{
								OFFSET 3.75138 -0.00000 -0.00000
								CHANNELS 3 Zrotation Yrotation Xrotation
								JOINT LeftFingerBase
								{
									OFFSET 0 0 0
									CHANNELS 3 Zrotation Yrotation Xrotation
									JOINT LeftHandIndex1
									{
										OFFSET 0.52917 -0.00000 0.00000
										CHANNELS 3 Zrotation Yrotation Xrotation
										End Site
										{
											OFFSET 0.42663 -0.00000 0.00000
										}
									}
								}
								JOINT LThumb
								{
									OFFSET 0 0 0
									CHANNELS 3 Zrotation Yrotation Xrotation
									End Site
									{
										OFFSET 0.43315 -0.00000 0.43315
									}
								}
							}
						}
					}
				}
				JOINT RightShoulder
				{
					OFFSET 0 0 0
					CHANNELS 3 Zrotation Yrotation Xrotation
					JOINT RightArm
					{
						OFFSET -3.07414 1.06285 -0.44338
						CHANNELS 3 Zrotation Yrotation Xrotation
						JOINT RightForeArm
						{
							OFFSET -5.29613 -0.00000 0.00000
							CHANNELS 3 Zrotation Yrotation Xrotation
							JOINT RightHand
							{
								OFFSET -3.76144 -0.00000 -0.00000
								CHANNELS 3 Zrotation Yrotation Xrotation
								JOINT RightFingerBase
								{
									OFFSET 0 0 0
									CHANNELS 3 Zrotation Yrotation Xrotation
									JOINT RightHandIndex1
									{
										OFFSET -0.74732 -0.00000 0.00000
										CHANNELS 3 Zrotation Yrotation Xrotation
										End Site
										{
											OFFSET -0.60251 -0.00000 0.00000
										}
									}
								}
								JOINT RThumb
								{
									OFFSET 0 0 0
									CHANNELS 3 Zrotation Yrotation Xrotation
									End Site
									{
										OFFSET -0.61171 -0.00000 0.61171
									}
								}
							}
						}
					}
				}
			}
		}
	}
}
MOTION
Frames: 8
Frame Time: .0083333
1.0534 17.8153 -16.2679 0 0 0 0 0 0 -21 0 0 0 0 0 0 0 0 0 0 0 0 0 0 21 0 0 0 0 0 0 0 0 0 0 0 0 0 0 0 0 0 0 0 0 0 0 -16 0 0 21 0 0 11 0 0 0 -8 0 0 0 0 0 0 0 0 0 0 0 0 0 0 0 0 0 0 0 0 8 0 0 0 0 0 0 0 0 0 0 0 0 0 0 0 0 0
1.0534 17.8153 -16.2679 -0.3318 -0.9965 5.6999 0.0000 0.0000 0.0000 -20.2869 -6.0745 -7.3273 1.0781 6.5997 18.5348 0.5527 0.7005 -14.3158 0.0108 0.6708 1.8435 0.0000 0.0000 0.0000 21.4793 6.3184 -7.2100 -1.1552 -6.8239 19.1948 -0.1311 -8.8117 -14.7423 -0.0095 -0.6295 1.7298 -1.3370 -0.3415 4.1736 2.3256 -0.4525 -1.0248 3.1839 -0.1740 -3.3691 -9.5601 -4.0740 -18.0337 6.6577 -4.3389 15.9640 3.2657 -1.9744 8.2846 0.0000 -0.0000 0.0000 -91.1914 -0.6023 20.0828 13.7557 -22.3844 -2.7344 -0.0000 -0.0000 12.9064 13.0794 27.9687 6.2184 -7.1250 0.0000 -0.0000 -19.2649 57.5213 -6.0568 0.0000 -0.0000 0.0000 87.1114 -1.7333 17.3051 -16.3703 26.0201 -3.8069 0.0000 0.0000 5.8705 -12.4508 12.3181 -2.6969 7.1250 -0.0000 -0.0000 10.2617 -17.4949 6.8128
1.0555 17.8146 -16.2685 -0.2674 -0.8535 5.7169 0.0000 0.0000 0.0000 -20.3563 -6.1414 -7.2919 1.0736 6.5865 18.4961 0.5525 0.6204 -14.2800 0.0128 0.7303 2.0070 0.0000 0.0000 0.0000 21.4029 6.2224 -7.2544 -1.1534 -6.8187 19.1794 -0.1318 -8.7766 -14.7104 -0.0241 -1.0015 2.7528 -1.3438 -0.3687 4.2213 2.3120 -0.4900 -1.0106 3.1767 -0.1926 -3.3789 -9.5688 -4.0915 -18.3365 6.6640 -4.3398 16.1492 3.2688 -1.9705 8.4004 -0.0000 -0.0000 0.0000 -91.2105 -0.7105 20.1149 13.7524 -22.3796 -2.7331 -0.0000 -0.0000 12.8297 12.9946 28.1663 6.2168 -7.1250 0.0000 -0.0000 -19.4830 57.6894 -6.2087 -0.0000 -0.0000 0.0000 87.0931 -1.7114 17.3424 -16.4094 26.0726 -3.8241 0.0000 0.0000 5.7155 -12.3958 12.3221 -2.6855 7.1250 -0.0000 -0.0000 10.2995 -17.4943 6.8389
1.0577 17.8166 -16.2675 -0.2794 -0.8441 5.8404 0.0000 0.0000 0.0000 -20.3472 -6.2062 -7.3771 1.0674 6.5681 18.4419 0.5526 0.6550 -14.2959 0.0138 0.7591 2.0862 0.0000 0.0000 0.0000 21.3799 6.2232 -7.4100 -1.1554 -6.8247 19.1970 -0.1374 -8.6476 -14.6397 -0.0266 -1.0528 2.8941 -1.2660 -0.3536 4.0939 2.2943 -0.4661 -0.9873 3.1108 -0.1840 -3.2851 -9.5605 -4.1223 -18.5655 6.7013 -4.3729 16.2269 3.2750 -1.9781 8.4703 -0.0000 0.0000 0.0000 -91.1702 -0.8786 20.2028 13.6743 -22.2672 -2.7035 -0.0000 -0.0000 12.7734 13.3022 27.5589 6.2426 -7.1250 0.0000 -0.0000 -18.7708 57.1811 -5.7382 -0.0000 0.0000 0.0000 87.1154 -1.5905 17.2912 -16.4052 26.0670 -3.8223 0.0000 0.0000 5.8265 -12.5585 12.3128 -2.7198 7.1250 -0.0000 -0.0000 10.1873 -17.4934 6.7621
1.0595 17.8174 -16.2664 -0.2312 -0.9569 5.8775 0.0000 0.0000 0.0000 -20.4195 -6.2217 -7.4437 1.0632 6.5554 18.4048 0.5455 0.8008 -14.2651 0.0126 0.7242 1.9903 0.0000 0.0000 0.0000 21.2968 6.2156 -7.4466 -1.1533 -6.8185 19.1787 -0.1408 -8.5111 -14.5289 -0.0176 -0.8569 2.3552 -1.2933 -0.3396 4.0074 2.2713 -0.4496 -0.9788 3.1002 -0.1762 -3.2285 -9.6102 -4.0726 -18.4050 6.7965 -4.3215 16.1193 3.3228 -1.9495 8.4046 0.0000 -0.0000 0.0000 -91.1726 -0.8426 20.1079 13.6257 -22.1971 -2.6851 -0.0000 -0.0000 12.8376 13.4637 27.1017 6.2245 -7.1250 0.0000 -0.0000 -18.3183 56.7809 -5.4144 0.0000 -0.0000 0.0000 87.1038 -1.5400 17.3801 -16.3800 26.0331 -3.8112 0.0000 0.0000 5.9238 -12.7728 12.4521 -2.7984 7.1250 -0.0000 -0.0000 10.0361 -17.3401 6.6928
1.0589 17.8191 -16.2661 -0.2608 -1.0074 5.9109 0.0000 0.0000 0.0000 -20.3809 -6.2255 -7.5757 1.0628 6.5544 18.4018 0.5339 0.8797 -14.1493 0.0120 0.7083 1.9465 0.0000 0.0000 0.0000 21.3346 6.2554 -7.4525 -1.1513 -6.8129 19.1622 -0.1399 -8.5315 -14.5388 -0.0109 -0.6746 1.8538 -1.2691 -0.3219 3.9465 2.2796 -0.4243 -0.9844 3.0928 -0.1643 -3.2017 -9.6691 -4.0411 -18.2382 6.8792 -4.2915 16.0276 3.3650 -1.9331 8.3451 0.0000 -0.0000 0.0000 -91.1567 -0.7412 20.1939 13.7059 -22.3128 -2.7155 -0.0000 -0.0000 12.9580 13.0273 27.5398 6.1061 -7.1250 0.0000 -0.0000 -19.0395 57.1054 -5.7893 0.0000 -0.0000 0.0000 87.0875 -1.5988 17.4318 -16.4154 26.0806 -3.8267 0.0000 0.0000 5.7166 -12.5007 12.2414 -2.6914 7.1250 -0.0000 -0.0000 10.2290 -17.5689 6.7735
1.0567 17.8202 -16.2697 -0.3597 -1.0393 5.9396 0.0000 0.0000 0.0000 -20.2443 -6.3427 -7.6256 1.0677 6.5691 18.4448 0.5324 0.9545 -14.1622 0.0118 0.7018 1.9285 0.0000 0.0000 0.0000 21.4592 6.4172 -7.4363 -1.1483 -6.8042 19.1365 -0.1319 -8.7186 -14.6422 -0.0045 -0.4310 1.1842 -1.2023 -0.2964 4.0062 2.3141 -0.3854 -1.0127 3.0892 -0.1447 -3.2673 -9.7069 -4.0324 -18.1943 6.9428 -4.2879 16.0607 3.3943 -1.9284 8.3506 -0.0000 -0.0000 0.0000 -91.1419 -0.6693 20.2857 13.7802 -22.4196 -2.7437 -0.0000 -0.0000 13.0629 12.6978 27.8565 6.0101 -7.1250 0.0000 -0.0000 -19.5816 57.3347 -6.0725 -0.0000 -0.0000 0.0000 87.0919 -1.6563 17.4169 -16.4269 26.0960 -3.8318 0.0000 0.0000 5.5483 -12.2414 11.6555 -2.5098 7.1250 -0.0000 -0.0000 10.4247 -18.1727 6.7664
1.0545 17.8181 -16.2742 -0.4261 -1.0258 5.9381 0.0000 0.0000 0.0000 -20.1467 -6.3956 -7.6532 1.0767 6.5958 18.5234 0.5354 0.9363 -14.1931 0.0145 0.7779 2.1378 0.0000 0.0000 0.0000 21.5520 6.5016 -7.4160 -1.1444 -6.7932 19.1041 -0.1221 -8.8558 -14.6602 -0.0022 -0.3035 0.8339 -1.2018 -0.3055 4.1894 2.3734 -0.3947 -1.0917 3.1541 -0.1457 -3.4514 -9.7770 -3.9744 -18.1471 7.0008 -4.2099 16.1615 3.4375 -1.8917 8.3721 -0.0000 0.0000 0.0000 -91.1951 -0.4784 20.2848 13.8611 -22.5358 -2.7747 -0.0000 -0.0000 13.0559 12.6583 27.9542 6.0101 -7.1250 0.0000 -0.0000 -19.6865 57.4183 -6.1469 -0.0000 0.0000 0.0000 87.0403 -1.7480 17.4308 -16.4204 26.0873 -3.8289 0.0000 0.0000 5.6040 -11.8155 11.0612 -2.2983 7.1250 -0.0000 -0.0000 10.7412 -18.7921 6.8292
